<svg width="78" height="72" viewBox="0 0 78 72" fill="none" xmlns="http://www.w3.org/2000/svg">
    <path d="M6.58803 53.928C6.1711 53.4551 5.33218 52.4783 5.31188 52.3543C5.28652 52.1993 4.81248 51.8312 5.08357 50.9593L7.75275 42.3737C6.64272 41.6854 4.52298 39.5601 4.92421 36.566C5.42574 32.8234 7.30038 31.0523 11.2425 30.439L17.1994 20.7424C19.0173 18.3652 24.3836 14.149 31.3057 16.301C39.9583 18.991 43.4565 27.1401 43.6111 32.5579C43.7657 37.9757 43.0604 51.3646 31.5423 51.9765C27.2519 52.2044 23.6295 50.8743 20.7768 48.7478L16.1461 45.4245L12.7898 54.0907C12.623 54.6273 11.9271 55.5879 10.4783 55.1374L6.58803 53.928Z" fill="#00B0B0"/>
    <g style="mix-blend-mode:multiply">
        <path d="M30.0322 19.215C39.208 22.0677 41.0306 30.9218 40.7949 34.9923C40.6874 41.7262 38.4263 48.5261 28.868 48.2761C21.2213 48.0762 18.0795 38.6697 17.4527 33.1787C16.8258 27.6876 20.8564 16.3623 30.0322 19.215Z" fill="#86D7D7"/>
    </g>
    <path d="M20.1091 29.8018C19.3817 29.8699 19.0113 30.809 18.917 31.2701C18.0345 35.5848 19.6584 38.565 20.5344 39.7907C21.4103 41.0165 22.2481 40.6668 22.949 40.5414L29.432 38.1435C30.3684 37.5764 32.0355 36.1577 31.9142 33.4719C31.7929 30.7861 29.2109 30.1795 28.0875 29.9284C25.7311 29.8578 20.8364 29.7337 20.1091 29.8018Z" fill="#00B0B0"/>
    <path d="M56.4014 59.6506C60.7426 56.8573 69.2882 47.9185 68.7408 34.5102C68.1934 21.1018 59.6702 15.653 55.4771 14.6046" stroke="#3BB1B1" stroke-width="2" stroke-linecap="round"/>
    <path d="M50.0537 43.4415C51.333 42.548 53.8643 39.7092 53.7553 35.5015C53.6462 31.2939 51.176 29.6155 49.9546 29.3023" stroke="#3BB1B1" stroke-width="2" stroke-linecap="round"/>
    <path d="M51.1298 54.7205C54.4508 52.4282 61.0169 45.1379 60.7136 34.3144C60.4103 23.4909 53.9819 19.1621 50.8057 18.3507" stroke="#3BB1B1" stroke-width="2" stroke-linecap="round"/>
</svg>
