<svg width="46" height="46" viewBox="0 0 46 46" fill="none" xmlns="http://www.w3.org/2000/svg">
    <rect width="46" height="46" rx="12" fill="#F0F4FA"/>
    <path d="M9.99998 27.2037V20.2037C10.8 18.2037 13.6666 19.7037 15 20.7037H18.5C18.5 19.9037 20.1667 19.037 21 18.7037L20.5 16.7037C19.3333 16.8704 16.9 17.3037 16.5 17.7037C16 18.2037 14 18.2037 14 15.7037C14 13.7037 15.6667 13.8704 16.5 14.2037L20.5 15.2037C22 13.2037 23.5 14.7037 24 15.2037C24.4 15.6037 26.5 14.7037 27.5 14.2037C28.3333 13.8704 30 13.8037 30 16.2037C30 18.6037 28.3333 18.2037 27.5 17.7037C27.1 17.3037 24.7124 16.8704 23.5457 16.7037C23.3791 17.3704 23.3075 18.7037 23.3075 18.7037C23.3075 18.7037 25 19 26 20.7037H28.5C35.3 23.1037 36.3333 28.3704 36 30.7037H30.5C29.7 26.7037 26 26.2037 26 26.2037H15C12.2 28.2037 10.5 27.7037 9.99998 27.2037Z" fill="#2B78E3"/>
    <path d="M34.9377 35.7037C33.7377 34.5037 33.4377 33.2037 33.4377 32.7037C33.1043 33.537 32.3375 35.3037 31.9375 35.7037C31.4375 36.2037 31.4377 37.7037 33.4377 37.7037C35.0377 37.7037 35.1044 36.3704 34.9377 35.7037Z" fill="#2B78E3"/>
</svg>
