<svg width="46" height="46" viewBox="0 0 46 46" fill="none" xmlns="http://www.w3.org/2000/svg">
    <rect width="46" height="46" rx="12" fill="#F0F4FA"/>
    <mask id="mask0_75_1865" style="mask-type:alpha" maskUnits="userSpaceOnUse" x="11" y="11" width="24" height="24">
        <rect x="11" y="11" width="24" height="24" fill="#FAE058"/>
    </mask>
    <g mask="url(#mask0_75_1865)">
        <path d="M22.0002 25.5L16.0752 24.75C15.6585 24.7 15.3877 24.475 15.2627 24.075C15.1377 23.675 15.2252 23.3333 15.5252 23.05L25.7502 13.25C25.8335 13.1667 25.9335 13.1042 26.0502 13.0625C26.1668 13.0208 26.3252 13 26.5252 13C26.8585 13 27.1127 13.1417 27.2877 13.425C27.4627 13.7083 27.4668 14 27.3002 14.3L24.0002 20.5L29.9252 21.25C30.3418 21.3 30.6127 21.525 30.7377 21.925C30.8627 22.325 30.7752 22.6667 30.4752 22.95L20.2502 32.75C20.1668 32.8333 20.0668 32.8958 19.9502 32.9375C19.8335 32.9792 19.6752 33 19.4752 33C19.1418 33 18.8877 32.8583 18.7127 32.575C18.5377 32.2917 18.5335 32 18.7002 31.7L22.0002 25.5Z" fill="#F7980A"/>
    </g>
</svg>
